<svg width="1080" height="1080" xmlns="http://www.w3.org/2000/svg" xml:space="preserve" version="1.1">
 <desc>Created with Fabric.js 5.2.4</desc>

 <g>
  <title>Layer 1</title>
  <g id="6d941f78-2173-4ec2-8df6-413d18f99d91" transform="matrix(1 0 0 1 540 540)"/>
  <g id="svg_3">
   <g id="svg_4"/>
  </g>
  <g id="svg_5">
   <g id="svg_6"/>
  </g>
  <g id="svg_7">
   <g id="svg_8"/>
  </g>
  <g id="svg_9">
   <g id="svg_10"/>
  </g>
  <g id="svg_11">
   <g id="svg_12"/>
  </g>
  <g id="svg_13">
   <g id="svg_14"/>
  </g>
  <g id="svg_15">
   <g id="svg_16"/>
  </g>
  <g id="svg_17">
   <g id="svg_18"/>
  </g>
  <g id="svg_19">
   <g id="svg_20"/>
  </g>
  <g id="svg_21">
   <g id="svg_22"/>
  </g>
  <g id="509c0f83-8361-4290-b5cb-92988519d1b3" transform="matrix(1 0 0 1 540 540)">
   <path id="svg_23" fill-rule=" nonzero" fill="#433929" stroke-miterlimit="4" stroke-linejoin=" miter" stroke-dashoffset="0" stroke-dasharray=" none" stroke-width="0" stroke-linecap=" butt" d="m-29.78,390.636q-128.652,-10.565 -216.892,-105.522q-88.239,-94.956 -88.239,-225.609q0,-78.13 35.5,-147.543q35.5,-69.413 99.5,-114.674l56.566,56.565q-52.609,32.435 -82.478,87.957q-29.87,55.521 -29.87,117.695q0,98.305 64.587,169.609q64.587,71.304 161.326,81.739l0,79.783zm60,0l0,-79.783q98.304,-11.435 161.609,-82.239q63.304,-70.804 63.304,-169.109q0,-103.913 -70.978,-177.434q-70.978,-73.522 -174.891,-76.913l-21.696,0l62.261,62.826l-47.522,47.522l-152.783,-152.784l152.783,-153.349l47.522,47.522l-68.479,68.479l22.261,0q138.522,0 234.914,98.022q96.391,98.022 96.391,236.109q0,130.653 -88.022,225.609q-88.022,94.957 -216.674,105.522z" vector-effect="non-scaling-stroke"/>
  </g>
  <g id="svg_24">
   <g id="svg_25"/>
  </g>
  <g id="svg_26">
   <g id="svg_27"/>
  </g>
  <g id="svg_28">
   <g id="svg_29"/>
  </g>
  <g id="svg_30">
   <g id="svg_31"/>
  </g>
 </g>
</svg>