<svg width="1080" height="1080" xmlns="http://www.w3.org/2000/svg" xml:space="preserve" version="1.1">
 <desc>Created with Fabric.js 5.2.4</desc>

 <g>
  <title>Layer 1</title>
  <g id="6d941f78-2173-4ec2-8df6-413d18f99d91" transform="matrix(1 0 0 1 540 540)"/>
  <path id="svg_3" fill-rule=" nonzero" fill="#433929" stroke-miterlimit="4" stroke-linejoin=" miter" stroke-dashoffset="0" stroke-dasharray=" none" stroke-width="0" stroke-linecap=" butt" d="m435.56498,954.41349l-20.566,-130.521q-15.608,-5.304 -34.065,-15.891q-18.456,-10.587 -31.63,-21.326l-121.956,56.261l-106.001,-187.176l111.391,-81.261q-1.434,-7.304 -1.934,-17.108q-0.5,-9.805 -0.5,-17.109q0,-7.304 0.5,-17.109q0.5,-9.804 1.934,-17.108l-111.391,-81.826l106.001,-186.045l123.087,55.696q12.608,-10.174 30.782,-20.478q18.174,-10.304 33.782,-15.174l20.566,-132.652l208.87,0l20.566,131.652q15.608,5.87 34.282,15.674q18.674,9.804 31.413,20.978l122.522,-55.696l105.435,186.045l-111.957,79.826q1.435,8.304 2.218,18.108q0.782,9.805 0.782,18.109q0,8.304 -0.782,17.609q-0.783,9.304 -2.218,17.608l111.957,80.261l-106.001,187.175l-122.522,-56.261q-13.173,10.739 -30.847,21.543q-17.674,10.805 -34.282,15.674l-20.566,130.522l-208.87,0zm103.305,-284.131q54,0 92,-38q38,-38 38,-92q0,-54 -38,-92q-38,-38 -92,-38q-54,0 -92,38q-38,38 -38,92q0,54 38,92q38,38 92,38zm0,-60q-29.566,0 -49.783,-20.5q-20.217,-20.5 -20.217,-49.5q0,-29 20.217,-49.5q20.217,-20.5 49.783,-20.5q29,0 49.5,20.5q20.5,20.5 20.5,49.5q0,29 -20.5,49.5q-20.5,20.5 -49.5,20.5zm1.13,-70zm-39.478,334.913l78.391,0l14.565,-111.435q33.565,-8 63.913,-25q30.348,-17 54.348,-42.696l106,46l34.913,-64.652l-92.87,-67.869q4,-17.565 6.783,-34.631q2.783,-17.065 2.783,-34.63q0,-17.565 -2.283,-34.63q-2.283,-17.066 -7.283,-34.631l93.435,-67.869l-35.478,-64.652l-105.435,46q-23,-27.131 -53.13,-45.479q-30.131,-18.348 -65.696,-22.782l-14,-110.87l-78.956,0l-13.435,110.87q-35.13,6.434 -65.761,24.282q-30.63,17.848 -54.196,43.979l-104.869,-46l-35.478,64.652l92.304,67.304q-4,17.565 -6.782,34.913q-2.783,17.348 -2.783,34.913q0,17.565 2.783,35.196q2.782,17.63 6.782,34.63l-92.304,67.304l35.478,64.652l104.869,-46q24.566,25.131 55.196,42.696q30.631,17.565 64.761,25.565l13.435,110.87z" vector-effect="non-scaling-stroke"/>
  <g id="svg_4">
   <g id="svg_5"/>
  </g>
  <g id="svg_6">
   <g id="svg_7"/>
  </g>
  <g id="svg_8">
   <g id="svg_9"/>
  </g>
  <g id="svg_10">
   <g id="svg_11"/>
  </g>
  <g id="svg_12">
   <g id="svg_13"/>
  </g>
  <g id="svg_14">
   <g id="svg_15"/>
  </g>
  <g id="svg_16">
   <g id="svg_17"/>
  </g>
  <g id="svg_18">
   <g id="svg_19"/>
  </g>
  <g id="svg_20">
   <g id="svg_21"/>
  </g>
  <g id="svg_22">
   <g id="svg_23"/>
  </g>
 </g>
</svg>