<?xml version="1.0" encoding="UTF-8" standalone="no" ?>
<!DOCTYPE svg PUBLIC "-//W3C//DTD SVG 1.1//EN" "http://www.w3.org/Graphics/SVG/1.1/DTD/svg11.dtd">
<svg xmlns="http://www.w3.org/2000/svg" xmlns:xlink="http://www.w3.org/1999/xlink" version="1.1" width="1080" height="1080" viewBox="0 0 1080 1080" xml:space="preserve">
<desc>Created with Fabric.js 5.2.4</desc>
<defs>
</defs>
<rect x="0" y="0" width="100%" height="100%" fill="transparent"></rect>
<g transform="matrix(1 0 0 1 540 540)" id="0d435486-a3c9-4d96-a1e1-95a8b9eda893"  >
<rect style="stroke: none; stroke-width: 1; stroke-dasharray: none; stroke-linecap: butt; stroke-dashoffset: 0; stroke-linejoin: miter; stroke-miterlimit: 4; fill: rgb(255,255,255); fill-rule: nonzero; opacity: 1; visibility: hidden;" vector-effect="non-scaling-stroke"  x="-540" y="-540" rx="0" ry="0" width="1080" height="1080" />
</g>
<g transform="matrix(1 0 0 1 540 540)" id="6d941f78-2173-4ec2-8df6-413d18f99d91"  >
</g>
<g transform="matrix(1 0 0 1 540 540)" id="f270d04c-0f91-42e7-921b-9cba408b0452"  >
<path style="stroke: rgb(77,77,77); stroke-width: 0; stroke-dasharray: none; stroke-linecap: butt; stroke-dashoffset: 0; stroke-linejoin: miter; stroke-miterlimit: 4; fill: rgb(77,77,77); fill-rule: nonzero; opacity: 1;" vector-effect="non-scaling-stroke"  transform=" translate(-480, 480.28)" d="M 375.565 -65.869 L 354.999 -196.39 Q 339.391 -201.694 320.934 -212.28099999999998 Q 302.478 -222.86799999999997 289.30400000000003 -233.60699999999997 L 167.348 -177.34599999999998 L 61.347 -364.522 L 172.738 -445.783 Q 171.304 -453.087 170.804 -462.891 Q 170.304 -472.696 170.304 -480 Q 170.304 -487.304 170.804 -497.109 Q 171.304 -506.91299999999995 172.738 -514.217 L 61.347 -596.043 L 167.348 -782.088 L 290.435 -726.3919999999999 Q 303.043 -736.5659999999999 321.217 -746.8699999999999 Q 339.39099999999996 -757.1739999999999 354.99899999999997 -762.0439999999999 L 375.56499999999994 -894.6959999999999 L 584.435 -894.6959999999999 L 605.001 -763.0439999999999 Q 620.6089999999999 -757.1739999999999 639.283 -747.3699999999999 Q 657.957 -737.5659999999999 670.696 -726.3919999999999 L 793.2180000000001 -782.088 L 898.653 -596.043 L 786.696 -516.217 Q 788.131 -507.913 788.914 -498.109 Q 789.696 -488.304 789.696 -480 Q 789.696 -471.696 788.914 -462.391 Q 788.131 -453.08700000000005 786.696 -444.783 L 898.653 -364.52200000000005 L 792.652 -177.34700000000004 L 670.13 -233.60800000000003 Q 656.957 -222.86900000000003 639.283 -212.06500000000003 Q 621.609 -201.26000000000002 605.001 -196.39100000000002 L 584.435 -65.869 L 375.56499999999994 -65.869 Z M 478.87 -350 Q 532.87 -350 570.87 -388 Q 608.87 -426 608.87 -480 Q 608.87 -534 570.87 -572 Q 532.87 -610 478.87 -610 Q 424.87 -610 386.87 -572 Q 348.87 -534 348.87 -480 Q 348.87 -426 386.87 -388 Q 424.87 -350 478.87 -350 Z M 478.87 -410 Q 449.30400000000003 -410 429.087 -430.5 Q 408.87 -451 408.87 -480 Q 408.87 -509 429.087 -529.5 Q 449.304 -550 478.87 -550 Q 507.87 -550 528.37 -529.5 Q 548.87 -509 548.87 -480 Q 548.87 -451 528.37 -430.5 Q 507.87 -410 478.87 -410 Z M 480 -480 Z M 440.522 -145.087 L 518.913 -145.087 L 533.4780000000001 -256.522 Q 567.0430000000001 -264.522 597.3910000000001 -281.522 Q 627.739 -298.522 651.739 -324.21799999999996 L 757.739 -278.21799999999996 L 792.652 -342.86999999999995 L 699.782 -410.7389999999999 Q 703.782 -428.3039999999999 706.565 -445.3699999999999 Q 709.3480000000001 -462.4349999999999 709.3480000000001 -479.9999999999999 Q 709.3480000000001 -497.5649999999999 707.065 -514.6299999999999 Q 704.782 -531.6959999999999 699.782 -549.2609999999999 L 793.2170000000001 -617.1299999999999 L 757.7390000000001 -681.7819999999999 L 652.3040000000001 -635.7819999999999 Q 629.3040000000001 -662.9129999999999 599.1740000000001 -681.261 Q 569.0430000000001 -699.6089999999999 533.4780000000001 -704.043 L 519.4780000000001 -814.913 L 440.52200000000005 -814.913 L 427.08700000000005 -704.043 Q 391.95700000000005 -697.609 361.326 -679.761 Q 330.696 -661.913 307.13 -635.7819999999999 L 202.261 -681.7819999999999 L 166.783 -617.1299999999999 L 259.087 -549.8259999999999 Q 255.087 -532.2609999999999 252.30499999999998 -514.9129999999999 Q 249.522 -497.5649999999999 249.522 -479.9999999999999 Q 249.522 -462.4349999999999 252.30499999999998 -444.80399999999986 Q 255.087 -427.17399999999986 259.087 -410.17399999999986 L 166.783 -342.8699999999999 L 202.261 -278.2179999999999 L 307.13 -324.2179999999999 Q 331.69599999999997 -299.0869999999999 362.326 -281.52199999999993 Q 392.957 -263.95699999999994 427.087 -255.95699999999994 L 440.522 -145.08699999999993 Z" stroke-linecap="round" />
</g>
<g transform="matrix(NaN NaN NaN NaN 0 0)"  >
<g style=""   >
</g>
</g>
<g transform="matrix(NaN NaN NaN NaN 0 0)"  >
<g style=""   >
</g>
</g>
<g transform="matrix(NaN NaN NaN NaN 0 0)"  >
<g style=""   >
</g>
</g>
<g transform="matrix(NaN NaN NaN NaN 0 0)"  >
<g style=""   >
</g>
</g>
<g transform="matrix(NaN NaN NaN NaN 0 0)"  >
<g style=""   >
</g>
</g>
<g transform="matrix(NaN NaN NaN NaN 0 0)"  >
<g style=""   >
</g>
</g>
<g transform="matrix(NaN NaN NaN NaN 0 0)"  >
<g style=""   >
</g>
</g>
<g transform="matrix(NaN NaN NaN NaN 0 0)"  >
<g style=""   >
</g>
</g>
<g transform="matrix(NaN NaN NaN NaN 0 0)"  >
<g style=""   >
</g>
</g>
<g transform="matrix(NaN NaN NaN NaN 0 0)"  >
<g style=""   >
</g>
</g>
</svg>