<?xml version="1.0" encoding="UTF-8" standalone="no" ?>
<!DOCTYPE svg PUBLIC "-//W3C//DTD SVG 1.1//EN" "http://www.w3.org/Graphics/SVG/1.1/DTD/svg11.dtd">
<svg xmlns="http://www.w3.org/2000/svg" xmlns:xlink="http://www.w3.org/1999/xlink" version="1.1" width="1080" height="1080" viewBox="0 0 1080 1080" xml:space="preserve">
<desc>Created with Fabric.js 5.2.4</desc>
<defs>
</defs>
<rect x="0" y="0" width="100%" height="100%" fill="transparent"></rect>
<g transform="matrix(1 0 0 1 540 540)" id="0d435486-a3c9-4d96-a1e1-95a8b9eda893"  >
<rect style="stroke: none; stroke-width: 1; stroke-dasharray: none; stroke-linecap: butt; stroke-dashoffset: 0; stroke-linejoin: miter; stroke-miterlimit: 4; fill: rgb(255,255,255); fill-rule: nonzero; opacity: 1; visibility: hidden;" vector-effect="non-scaling-stroke"  x="-540" y="-540" rx="0" ry="0" width="1080" height="1080" />
</g>
<g transform="matrix(1 0 0 1 540 540)" id="6d941f78-2173-4ec2-8df6-413d18f99d91"  >
</g>
<g transform="matrix(NaN NaN NaN NaN 0 0)"  >
<g style=""   >
</g>
</g>
<g transform="matrix(NaN NaN NaN NaN 0 0)"  >
<g style=""   >
</g>
</g>
<g transform="matrix(NaN NaN NaN NaN 0 0)"  >
<g style=""   >
</g>
</g>
<g transform="matrix(NaN NaN NaN NaN 0 0)"  >
<g style=""   >
</g>
</g>
<g transform="matrix(NaN NaN NaN NaN 0 0)"  >
<g style=""   >
</g>
</g>
<g transform="matrix(NaN NaN NaN NaN 0 0)"  >
<g style=""   >
</g>
</g>
<g transform="matrix(NaN NaN NaN NaN 0 0)"  >
<g style=""   >
</g>
</g>
<g transform="matrix(NaN NaN NaN NaN 0 0)"  >
<g style=""   >
</g>
</g>
<g transform="matrix(NaN NaN NaN NaN 0 0)"  >
<g style=""   >
</g>
</g>
<g transform="matrix(NaN NaN NaN NaN 0 0)"  >
<g style=""   >
</g>
</g>
<g transform="matrix(1 0 0 1 540 540)" id="509c0f83-8361-4290-b5cb-92988519d1b3"  >
<path style="stroke: rgb(77,77,77); stroke-width: 0; stroke-dasharray: none; stroke-linecap: butt; stroke-dashoffset: 0; stroke-linejoin: miter; stroke-miterlimit: 4; fill: rgb(77,77,77); fill-rule: nonzero; opacity: 1;" vector-effect="non-scaling-stroke"  transform=" translate(-480.78, 497.94)" d="M 451 -107.304 Q 322.348 -117.869 234.108 -212.82600000000002 Q 145.869 -307.78200000000004 145.869 -438.43500000000006 Q 145.869 -516.565 181.369 -585.9780000000001 Q 216.869 -655.3910000000001 280.869 -700.652 L 337.43500000000006 -644.087 Q 284.8260000000001 -611.652 254.95700000000005 -556.13 Q 225.08700000000005 -500.609 225.08700000000005 -438.435 Q 225.08700000000005 -340.13 289.67400000000004 -268.826 Q 354.261 -197.52200000000005 451 -187.087 L 451 -107.30399999999999 Z M 511 -107.304 L 511 -187.087 Q 609.304 -198.522 672.609 -269.326 Q 735.913 -340.13 735.913 -438.43500000000006 Q 735.913 -542.3480000000001 664.9350000000001 -615.869 Q 593.9570000000001 -689.3910000000001 490.0440000000001 -692.782 L 468.34800000000007 -692.782 L 530.609 -629.956 L 483.08700000000005 -582.434 L 330.3040000000001 -735.218 L 483.0870000000001 -888.567 L 530.6090000000002 -841.045 L 462.13000000000017 -772.5659999999999 L 484.3910000000002 -772.5659999999999 Q 622.9130000000002 -772.5659999999999 719.3050000000002 -674.5439999999999 Q 815.6960000000001 -576.5219999999998 815.6960000000001 -438.43499999999983 Q 815.6960000000001 -307.7819999999998 727.6740000000001 -212.82599999999982 Q 639.652 -117.869 511 -107.304 Z" stroke-linecap="round" />
</g>
<g transform="matrix(NaN NaN NaN NaN 0 0)"  >
<g style=""   >
</g>
</g>
<g transform="matrix(NaN NaN NaN NaN 0 0)"  >
<g style=""   >
</g>
</g>
<g transform="matrix(NaN NaN NaN NaN 0 0)"  >
<g style=""   >
</g>
</g>
<g transform="matrix(NaN NaN NaN NaN 0 0)"  >
<g style=""   >
</g>
</g>
</svg>